<svg xmlns="http://www.w3.org/2000/svg" width="1440" height="560" viewBox="0 0 1440 560" fill="none">
  <g clip-path="url(#clip0_1_2)">
    <rect width="1440" height="560" fill="white"/>
    <path d="M0 0H1440V560H0V0Z" fill="#EFF6FF"/>
    <path d="M-50 195C-50 195 121 68 214 68C307 68 389 236 520 226C651 216 768 119 857 119C946 119 1045 142 1146 142C1247 142 1338 198 1438 198C1538 198 1611 142 1688 142C1765 142 1858 204 1858 204V505H-50V195Z" fill="#DBEAFE" fill-opacity="0.5"/>
    <path d="M-50 255C-50 255 121 128 214 128C307 128 389 296 520 286C651 276 768 179 857 179C946 179 1045 202 1146 202C1247 202 1338 258 1438 258C1538 258 1611 202 1688 202C1765 202 1858 264 1858 264V565H-50V255Z" fill="#93C5FD" fill-opacity="0.3"/>
    <path d="M-50 305C-50 305 121 178 214 178C307 178 389 346 520 336C651 326 768 229 857 229C946 229 1045 252 1146 252C1247 252 1338 308 1438 308C1538 308 1611 252 1688 252C1765 252 1858 314 1858 314V615H-50V305Z" fill="#3B82F6" fill-opacity="0.1"/>
    <circle cx="1184" cy="139" r="27" fill="#3B82F6" fill-opacity="0.1"/>
    <circle cx="1184" cy="139" r="16" fill="#3B82F6" fill-opacity="0.2"/>
    <circle cx="284" cy="200" r="37" fill="#93C5FD" fill-opacity="0.3"/>
    <circle cx="284" cy="200" r="24" fill="#DBEAFE" fill-opacity="0.5"/>
    <circle cx="933" cy="237" r="20" fill="#DBEAFE" fill-opacity="0.5"/>
    <circle cx="933" cy="237" r="12" fill="#3B82F6" fill-opacity="0.1"/>
    <circle cx="528" cy="129" r="14" fill="#3B82F6" fill-opacity="0.1"/>
    <circle cx="1324" cy="262" r="14" fill="#3B82F6" fill-opacity="0.1"/>
    <circle cx="1405" cy="173" r="8" fill="#3B82F6" fill-opacity="0.1"/>
    <circle cx="1067" cy="163" r="8" fill="#3B82F6" fill-opacity="0.1"/>
    <circle cx="631" cy="204" r="8" fill="#3B82F6" fill-opacity="0.1"/>
    <circle cx="366" cy="143" r="8" fill="#3B82F6" fill-opacity="0.1"/>
    <circle cx="120" cy="243" r="30" fill="#93C5FD" fill-opacity="0.2"/>
    <circle cx="776" cy="197" r="20" fill="#3B82F6" fill-opacity="0.07"/>
  </g>
  <defs>
    <clipPath id="clip0_1_2">
      <rect width="1440" height="560" fill="white"/>
    </clipPath>
  </defs>
</svg>
